# xmcd
#
# Track frame offsets:
#	150
#	16145
#	31245
#	48487
#	68815
#
# Disc length: 1193 seconds
#
# Revision: 1
# Processed by: cddbd v1.5.1PL2 Copyright (c) Steve Scherf et al.
# Submitted via: audiograbber 1.83.01
#
DISCID=3604a705
DTITLE=Alaska Green - 5 Seconds
DYEAR=2001
DGENRE=Blues
TTITLE0=Back To Your Heart
TTITLE1=Can't Sleep Tonight
TTITLE2=Drove All Night
TTITLE3=Can't You See
TTITLE4=You 're My Girl
EXTD=
EXTT0=
EXTT1=
EXTT2=
EXTT3=
EXTT4=
PLAYORDER=
